<svg fill="none" height="110" viewBox="0 0 288 110" width="288" xmlns="http://www.w3.org/2000/svg" xmlns:xlink="http://www.w3.org/1999/xlink"><linearGradient id="a" gradientUnits="userSpaceOnUse" x1="141.856" x2="141.856" y1="3.76806" y2="110.485"><stop offset="0" stop-color="#009dc4"/><stop offset="1" stop-color="#bbddea"/></linearGradient><path d="m10.4542 59.615s2.43 4.0823 2.4408 4.0769l4.2821-2.1599.5994-.3024 19.6341 43.7394 1.8845 4.201 4.401-1.453 10.6324-3.52 4.6547-1.539-1.2312-4.7036-5.6429-21.6699c1.5929-1.1908 3.1079-2.4822 4.536-3.8663-.3327 2.5897-.1491 5.2197.5399 7.7381.6745 2.5248 1.891 4.8723 3.565 6.8792 1.6739 2.0068 3.7651 3.6248 6.1279 4.7414 5.1569 2.4299 11.4532 2.3705 17.2797-.162 2.8779-1.2705 5.4945-3.065 7.7165-5.2919l.7992 8.6398 18.6137-2.9483v-16.7398l38.879 18.8997v-18.6783c1.606-.1484 3.198-.4192 4.763-.8099 3.94-.9347 7.715-2.4642 11.194-4.536l-1.62 10.0277 20.968 3.0995 1.161-7.5869 5.47 10.0871 3.342-6.4799 1.205 10.5568 23.759 3.9581-1.263-8.008c3.396.3245 6.822-.1603 9.995-1.4148.789-.3192 1.56-.6796 2.311-1.08l-.956 8.5481 15.827 2.0573.13 6.4798 16.507 5.119 21.481-65.1443-22.372-5.2055-2.111 8.7911-1.976-9.7199-26.292-5.5187.194 14.6392 3.958.8424-.297 2.6513-.113-.0594c-4.898-2.5595-10.984-2.7539-16.74-.54-1.892.7473-3.681 1.7326-5.324 2.9322l-3.953-25.0448-17.485.1836-.491 2.8836-18.392.1889-2.106 12.9328-1.518-1.8359c-4.46-5.4539-10.918-8.4131-18.079-8.4887l15.617-8.5751-10.892-16.19969-19.688 22.93339 3.407 4.1256c-2.959 1.2181-5.668 2.9718-7.991 5.1731l-16.859-14.8066-5.913 11.3992.232-10.8916-26.3944 8.7155.702 14.2395 4.4927-1.2204.6426 7.1603c-5.1299-2.2571-11.2912-2.1599-17.0097.3456-1.6746.7398-3.2627 1.6616-4.7357 2.7486.9882-4.3955.756-8.7209-.9126-12.5602-1.9711-4.5024-5.3749-8.2271-9.682-10.5946-3.0876-1.9832-6.6061-3.1962-10.2599-3.537-9.1258-1.5066-20.0876.2538-30.8713 4.9625-3.8236 1.6539-7.50598 3.617-11.01037 5.8697l-4.21733 2.7324 2.56496 4.2929zm109.4348-3.0131 5-4.9194c-.217 2.3221-.093 4.6634.367 6.9497zm49.063-3.8178-3.429-3.0617 3.667-3.9528 1.08-1.1825z" fill="url(#a)"/><path d="m265.384 31.0225-2.16 8.7748-1.966-9.7198-26.346-5.7941.195 14.6446 3.963.8801-.297 2.6514-.113-.0648c-4.909-2.6082-11.011-2.8674-16.74-.702-1.894.7284-3.686 1.6956-5.335 2.8782l-3.964-25.088h-17.517l-.486 2.8781h-18.435l-2.111 12.9058-1.534-1.8845c-2.194-2.6914-4.956-4.8648-8.088-6.3649s-6.556-2.2899-10.029-2.3128l15.66-8.4077-10.919-16.2969-19.731 22.7282 3.413 4.1634c-2.963 1.1843-5.679 2.9113-8.008 5.0921l-16.918-15.028-5.94 11.3398.232-10.8916-26.4594 8.4401.6696 14.2179 4.5035-1.1772.6966 7.2305c-5.1353-2.3057-11.3128-2.2625-17.0475.1674-1.6775.721-3.2695 1.6266-4.7466 2.7.9936-4.3901.7614-8.7155-.9125-12.571-1.9833-4.5325-5.3975-8.2901-9.7199-10.6972-3.0827-2.011-6.5993-3.2603-10.2598-3.645-9.1421-1.6199-20.1309.0432-30.9415 4.6386-3.8268 1.6139-7.5147 3.5391-11.02662 5.7563l-4.22813 2.6999 2.54876 4.3199 7.91629 13.381s2.4353 4.1094 2.4461 4.104l4.32-2.0952.594-.2916 19.6556 43.9121 1.8954 4.2226 4.4063-1.409 10.6541-3.4076 4.6655-1.4904-1.2312-4.7411-5.6645-21.7185c1.5979-1.173 3.1168-2.4502 4.5467-3.8231-.3323 2.5915-.1488 5.2232.54 7.7435.6795 2.5391 1.8999 4.9013 3.5776 6.9248 1.6777 2.0234 3.7729 3.6603 6.1422 4.7984 5.1678 2.4839 11.4749 2.4893 17.2798 0 2.8788-1.2411 5.4998-3.0103 7.7272-5.2163l.8046 8.6398 18.6518-2.7377v-16.7397l39.008 19.31v-18.6621c1.609-.1317 3.205-.3862 4.774-.7613 3.94-.8905 7.72-2.3783 11.21-4.4118l-1.62 10.0115 21.017 3.3155 1.161-7.5599 5.491 10.1411 3.343-6.4799 1.226 10.6108 23.835 4.2065-1.269-8.0189c3.398.3571 6.832-.0944 10.022-1.3175.79-.3017 1.564-.646 2.317-1.0314l-.961 8.5426 15.859 2.2194.13 6.4799 16.529 5.2004 21.535-64.891zm-216.1638 24.2726c-.7668-2.5488-2.4246-8.0405-2.4246-8.0405s-.3348-1.1826-.7182-2.5487c1.3994-.2869 2.8534-.1283 4.158.4536.5151.2232.9706.5642 1.3298.9957.3592.4314.6121.9412.7383 1.4882.5616 3.1481-.5292 5.3945-3.0833 7.6517zm73.6498-4.3199 5.011-4.86c-.217 2.3221-.093 4.6634.367 6.9497zm22.987-1.9764c-.656-1.1912-.93-2.5557-.784-3.9079.147-1.3522.706-2.6265 1.602-3.6496.897-1.0231 2.086-1.7453 3.407-2.0684 1.322-.3231 2.71-.2315 3.977.2624zm26.184-1.3284-3.44-3.0941 3.678-3.915 1.08-1.1717z" fill="#ffcb05"/><g fill="#004a94"><path d="m265.384 31.0225-2.16 8.7748-1.966-9.7198-26.346-5.7941.195 14.6446 3.963.8801-.297 2.6514-.113-.0648c-4.909-2.6082-11.011-2.8674-16.74-.702-1.894.7284-3.686 1.6956-5.335 2.8782l-3.964-25.088h-17.517l-.486 2.8781h-18.435l-2.111 12.9058-1.534-1.8845c-2.194-2.6914-4.956-4.8648-8.088-6.3649s-6.556-2.2899-10.029-2.3128l15.66-8.4077-10.919-16.2969-19.731 22.7282 3.413 4.1634c-2.963 1.1843-5.679 2.9113-8.008 5.0921l-16.918-15.028-5.94 11.3398.232-10.8916-26.4594 8.4401.6696 14.2179 4.5035-1.1772.6966 7.2305c-5.1353-2.3057-11.3128-2.2625-17.0475.1674-1.6775.721-3.2695 1.6266-4.7466 2.7.9936-4.3901.7614-8.7155-.9125-12.571-1.9833-4.5325-5.3975-8.2901-9.7199-10.6972-3.0827-2.011-6.5993-3.2603-10.2598-3.645-9.1421-1.6199-20.1309.0432-30.9415 4.6386-3.8268 1.6139-7.5147 3.5391-11.02662 5.7563l-4.22813 2.6999 2.54876 4.3199 7.91629 13.381s2.4353 4.1094 2.4461 4.104l4.32-2.0952.594-.2916 19.6556 43.9121 1.8954 4.2226 4.4063-1.409 10.6541-3.4076 4.6655-1.4904-1.2312-4.7411-5.6645-21.7185c1.5979-1.173 3.1168-2.4502 4.5467-3.8231-.3323 2.5915-.1488 5.2232.54 7.7435.6795 2.5391 1.8999 4.9013 3.5776 6.9248 1.6777 2.0234 3.7729 3.6603 6.1422 4.7984 5.1678 2.4839 11.4749 2.4893 17.2798 0 2.8788-1.2411 5.4998-3.0103 7.7272-5.2163l.8046 8.6398 18.6518-2.7377v-16.7397l39.008 19.31v-18.6621c1.609-.1317 3.205-.3862 4.774-.7613 3.94-.8905 7.72-2.3783 11.21-4.4118l-1.62 10.0115 21.017 3.3155 1.161-7.5599 5.491 10.1411 3.343-6.4799 1.226 10.6108 23.835 4.2065-1.269-8.0189c3.398.3571 6.832-.0944 10.022-1.3175.79-.3017 1.564-.646 2.317-1.0314l-.961 8.5426 15.859 2.2194.13 6.4799 16.529 5.2004 21.535-64.891zm-93.105 9.6388 1.08-1.1717-1.339 8.1808-3.44-3.0941zm-13.964-33.42542 5.767 7.84062-16.497 8.1755-1.145-1.7226zm-30.067 45.81822-5.4-2.0844 5.011-4.8599c-.21 2.3232-.079 4.6645.389 6.9497zm-79.2438 14.6608 6.5771 25.2662-10.6541 3.4073-21.8426-48.8476c-1.1826.6264-3.3803 1.674-5.3999 2.673l-7.93787-13.381c3.26887-2.0611 6.70017-3.8526 10.25987-5.3567 10.3192-4.3847 20.1416-5.6861 28.0201-4.3199 2.955.2832 5.801 1.2621 8.3051 2.8565 3.4715 1.8692 6.2224 4.8404 7.819 8.4455 3.8232 8.8018-2.5379 21.4862-15.1467 29.2567zm45.1864 6.2315c-2.2576 3.1521-5.33 5.6309-8.8882 7.1711-9.2501 3.9203-18.4947-.0001-20.9625-8.7695-2.3759-8.4995 3.186-18.5919 12.1498-22.4528 5.7131-2.4246 11.4532-1.8468 15.568.945 2.643 1.7962 4.5579 4.4771 5.3999 7.5598.1026.3564.1836.7128.2592 1.08.2541 1.2431.3592 2.512.3132 3.78-.1949 3.8607-1.5248 7.5781-3.8232 10.6864zm54.1724 7.1333-38.675-19.3425.065 20.2658-10.0329 1.3716-.7019-8.3698c3.0938-5.2866 4.2228-11.5288 2.6028-17.242-.842-3.057-2.4758-5.8378-4.7358-8.062l-1.4418-17.0529-4.4981 1.1717-.1944-4.3199 16.0701-4.7843.983 16.5723 11.836-16.6317 11.572 11.0104-16.167 17.0691 15.195 6.0155c1.763 3.2813 4.374 6.0299 7.56 7.9595 3.207 1.9479 6.819 3.1305 10.557 3.4559zm8.467-16.54c-1.182.2845-2.382.4866-3.591.6048-8.872.864-16.313-3.2399-19.143-9.8278-.345-.7966-.618-1.6225-.815-2.4678-1.313-5.5727-.2-10.5406 2.554-14.4393.798-1.132 1.722-2.17 2.754-3.0942 2.766-2.4011 6.08-4.0866 9.649-4.9085 8.462-2.0358 15.914.54 20.461 6.1451l-16.103 17.1555c1.08.1944 2.835-.0918 4.115-.405 3.839-.9234 5.994-2.9537 7.873-5.1785l6.458 5.7941 1.955 1.755c-.835.8649-1.716 1.6833-2.641 2.4515-3.726 3.0618-7.954 5.0652-13.553 6.4151zm60.862 18.4677-13.17-2.0087-3.5-23.2197-4.951 12.8032-7.42-15.9945h-.081l-2.948 18.5271-12.355-2.16 1.733-10.3408c.465-.4374.924-.8856 1.377-1.35l4.002-4.1255-3.878-3.4884 4.121-24.6236h12.484l3.116 17.0422 3.504-19.7529h8.921l3.704 24.0674c-4.719 5.3729-7.019 12.5818-5.426 19.1913.555 2.4628 1.635 4.7768 3.166 6.7842 1.531 2.0073 3.477 3.6607 5.706 4.8472.453.243.923.459 1.398.6588zm13.181-7.1657c-2.916 1.1486-6.096 1.4591-9.18.8964-1.914-.3666-3.726-1.1421-5.313-2.2733-2.596-1.8843-4.414-4.6512-5.114-7.7813-.95-3.9905-.081-8.2727 2.068-11.9932 1.09-1.8807 2.467-3.5789 4.083-5.0327 1.833-1.6617 3.956-2.9722 6.263-3.8664 5.454-2.0519 10.8-1.3337 14.618 1.3878 1.388.9915 2.562 2.2534 3.451 3.7098.709 1.1726 1.234 2.4475 1.555 3.7799 1.15 4.7951-.227 9.9466-3.24 14.0938-1.308 1.7924-2.894 3.3639-4.698 4.6547-1.395 1.0005-2.915 1.8155-4.52 2.4245zm32.319 19.4829-9.142-2.7377-.8-33.7009-4.6 26.0006-9.979-1.5876.685-7.4843c6.513-5.5025 9.974-14.1801 8.1-22.0478-.788-3.3977-2.585-6.4774-5.157-8.8342l.837-8.8289-3.78-1.0044.26-4.7141 17.182 3.4505 5.783 27.3992 5.94-24.5696 13.074 2.8943z"/><path d="m235.539 51.8175c.106.3995.154.8125.14 1.2258-.108 2.5542-2.516 4.5305-5.4 4.4117-2.883-.1188-5.114-2.2787-5.006-4.8329.098-2.3976 2.225-4.2875 4.86-4.4117-.515-.1099-1.039-.1785-1.566-.2052-4.795-.1944-8.715 3.2075-8.888 7.4411-.183 4.5089 3.451 8.2132 8.17 8.4076 4.72.1944 8.716-3.2021 8.899-7.711.063-1.5332-.361-3.047-1.209-4.3254z"/><path d="m89.9733 56.9799c0 2.5541-2.3274 4.6277-5.2001 4.6277-2.8728 0-5.2001-2.0736-5.2001-4.6277 0-2.403 2.0573-4.374 4.6817-4.6062-.5189-.091-1.0446-.138-1.5714-.1404-4.7951 0-8.5804 3.5586-8.5804 7.7975 0 4.5089 3.7799 8.0675 8.5102 8.0675s8.5805-3.5586 8.5805-8.0675c-.0064-1.537-.4998-3.0324-1.4094-4.2713.1231.3952.1868.8065.189 1.2204z"/><path d="m146.078 48.3454c-.585-1.0661-.829-2.2863-.699-3.4957.13-1.2093.629-2.3495 1.428-3.2665s1.86-1.5665 3.041-1.8607c1.18-.2943 2.422-.2192 3.558.2152zm.805-6.8633c-.833.9171-1.359 2.0719-1.503 3.3026s.1 2.4757.698 3.5607l7.328-8.4077c-1.116-.4292-2.336-.5114-3.5-.2359-1.164.2756-2.218.8961-3.023 1.7803zm10.589-2.808c-.893-.8133-1.938-1.4427-3.075-1.8523-1.137-.4095-2.343-.5911-3.55-.5345-1.207.0567-2.391.3505-3.484.8648-1.094.5142-2.075 1.2387-2.888 2.1322-.814.8935-1.443 1.9385-1.853 3.0752-.409 1.1368-.591 2.3431-.534 3.55.056 1.2069.35 2.3909.865 3.4843.514 1.0934 1.238 2.0748 2.132 2.8881.309.2786.637.5349.983.7668l12.058-13.7158c-.206-.2376-.422-.4482-.654-.6588zm-11.394 9.6713c-.585-1.0661-.829-2.2863-.699-3.4957.13-1.2093.629-2.3495 1.428-3.2665s1.86-1.5665 3.041-1.8607c1.18-.2943 2.422-.2192 3.558.2152z"/><path d="m55.7973 46.8496c-.9342-5.1785-7.6733-8.0999-14.4124-4.4657l1.6902 5.9399 2.6891 8.7586 1.215 3.996c5.0273-3.2076 10.1248-7.0577 8.8181-14.2288zm-6.7067 7.9055-2.3004-7.5599c0 .027-.3186-1.1178-.6858-2.3976 1.3182-.2741 2.689-.1287 3.9204.4158.4855.209.9152.5288 1.2547.934.3395.4051.5793.8842.7 1.3988.54 2.97-.486 5.0867-2.8889 7.2089z"/></g><g fill="#000"><path d="m270.53 96.761h2.257v.3294h-.934v2.4516h-.372v-2.4516h-.94z"/><path d="m273.1 99.542v-2.781h.54l.8 2.3544.799-2.3544h.54v2.781h-.357v-1.62c0-.054 0-.1512 0-.2808s0-.2754 0-.4266l-.793 2.349h-.378l-.8-2.349v.0864.3132.3078 1.62z"/></g></svg>